OxygenSans-Bold.ufo-OLD.ufo
<glyph name="six" format="1">
  <advance width="1210.03143998"/>
  <unicode hex="0036"/>
  <outline>
    <contour>
      <point x="623.0" y="-19.0" type="curve" smooth="yes"/>
      <point x="919.0" y="-19.0"/>
      <point x="1131" y="172"/>
      <point x="1128" y="443" type="curve" smooth="yes"/>
      <point x="1121" y="1003"/>
      <point x="488" y="1025"/>
      <point x="351" y="657" type="curve"/>
      <point x="351.0" y="646.0" type="line"/>
      <point x="351.0" y="646.0"/>
      <point x="555" y="886"/>
      <point x="633" y="998" type="curve" smooth="yes"/>
      <point x="957.0" y="1460.0" type="line"/>
      <point x="687.0" y="1460.0" type="line"/>
      <point x="323.0" y="945.0" type="line"/>
      <point x="206.0" y="782.0"/>
      <point x="115.0" y="648.0"/>
      <point x="115.0" y="447.0" type="curve" smooth="yes"/>
      <point x="115.0" y="180.0"/>
      <point x="314.0" y="-19.0"/>
    </contour>
    <contour>
      <point x="615.0" y="159.0" type="curve" smooth="yes"/>
      <point x="436.0" y="159.0"/>
      <point x="345" y="278"/>
      <point x="345" y="436" type="curve" smooth="yes"/>
      <point x="345" y="842"/>
      <point x="897" y="847"/>
      <point x="897" y="440" type="curve" smooth="yes"/>
      <point x="897" y="281"/>
      <point x="797.0" y="159.0"/>
    </contour>
  </outline>
</glyph>
<glyph name="nine" format="1">
  <advance width="1210"/>
  <unicode hex="0039"/>
  <outline>
    <contour>
      <point x="268" y="0" type="line"/>
      <point x="546" y="0" type="line"/>
      <point x="546" y="0"/>
      <point x="919" y="500"/>
      <point x="935" y="521" type="curve" smooth="yes"/>
      <point x="1048" y="676"/>
      <point x="1141" y="811"/>
      <point x="1141" y="1009" type="curve" smooth="yes"/>
      <point x="1141" y="1277"/>
      <point x="941" y="1480"/>
      <point x="632" y="1480" type="curve" smooth="yes"/>
      <point x="336" y="1480"/>
      <point x="113" y="1285"/>
      <point x="127" y="1012" type="curve" smooth="yes"/>
      <point x="152" y="539"/>
      <point x="729" y="447"/>
      <point x="931" y="794" type="curve"/>
      <point x="834" y="732" type="line"/>
      <point x="834" y="732"/>
      <point x="685" y="544"/>
      <point x="645" y="490" type="curve" smooth="yes"/>
    </contour>
    <contour>
      <point x="626" y="742" type="curve" smooth="yes"/>
      <point x="442" y="742"/>
      <point x="358" y="856"/>
      <point x="358" y="1023" type="curve" smooth="yes"/>
      <point x="358" y="1184"/>
      <point x="460" y="1297"/>
      <point x="642" y="1297" type="curve" smooth="yes"/>
      <point x="821" y="1297"/>
      <point x="912" y="1187"/>
      <point x="912" y="1028" type="curve" smooth="yes"/>
      <point x="912" y="835"/>
      <point x="783" y="742"/>
    </contour>
  </outline>
</glyph>
<glyph name="B" format="1">
  <advance width="1333.71428571"/>
  <unicode hex="0042"/>
  <outline>
    <contour>
      <point x="160" y="5" type="line"/>
      <point x="991" y="-57"/>
      <point x="1248" y="66"/>
      <point x="1248" y="427" type="curve" smooth="yes"/>
      <point x="1248" y="650"/>
      <point x="1098" y="772"/>
      <point x="866" y="806" type="curve"/>
      <point x="866" y="748" type="line"/>
      <point x="1117" y="802"/>
      <point x="1203" y="931"/>
      <point x="1203" y="1098" type="curve" smooth="yes"/>
      <point x="1203" y="1424"/>
      <point x="941" y="1525"/>
      <point x="160" y="1456" type="curve"/>
    </contour>
    <contour>
      <point x="341" y="185" type="curve"/>
      <point x="400" y="123" type="line"/>
      <point x="400" y="750" type="line"/>
      <point x="341" y="684" type="line"/>
      <point x="664" y="684" type="line" smooth="yes"/>
      <point x="900" y="684"/>
      <point x="1010" y="618"/>
      <point x="1010" y="438" type="curve" smooth="yes"/>
      <point x="1010" y="240"/>
      <point x="879" y="145"/>
    </contour>
    <contour>
      <point x="340" y="854" type="line"/>
      <point x="400" y="801" type="line"/>
      <point x="400" y="1342" type="line"/>
      <point x="341" y="1279" type="line"/>
      <point x="797" y="1316"/>
      <point x="962" y="1267"/>
      <point x="962" y="1064" type="curve" smooth="yes"/>
      <point x="962" y="903"/>
      <point x="863" y="854"/>
      <point x="687" y="854" type="curve" smooth="yes"/>
    </contour>
  </outline>
</glyph>
<glyph name="I" format="1">
  <advance width="960.5"/>
  <unicode hex="0049"/>
  <outline>
    <contour>
      <point x="156.25" y="1460" type="line"/>
      <point x="156.25" y="1310" type="line"/>
      <point x="431.25" y="1310" type="line"/>
      <point x="362.25" y="1366" type="line"/>
      <point x="362.25" y="88" type="line"/>
      <point x="432.25" y="150" type="line"/>
      <point x="156.25" y="150" type="line"/>
      <point x="156.25" y="0" type="line"/>
      <point x="804.25" y="0" type="line"/>
      <point x="804.25" y="150" type="line"/>
      <point x="525.25" y="150" type="line"/>
      <point x="602.25" y="88" type="line"/>
      <point x="602.25" y="1368" type="line"/>
      <point x="526.25" y="1310" type="line"/>
      <point x="804.25" y="1310" type="line"/>
      <point x="804.25" y="1460" type="line"/>
    </contour>
  </outline>
</glyph>
<glyph name="Q" format="1">
  <advance width="1623"/>
  <unicode hex="0051"/>
  <outline>
    <contour>
      <point x="1271" y="-465" type="curve"/>
      <point x="1410" y="-341" type="line"/>
      <point x="1294" y="-202"/>
      <point x="1131" y="26"/>
      <point x="1047" y="187" type="curve"/>
      <point x="894" y="108" type="line"/>
      <point x="976" y="-65"/>
      <point x="1158" y="-332"/>
    </contour>
    <component base="O"/>
  </outline>
</glyph>
<glyph name="R" format="1">
  <advance width="1390"/>
  <unicode hex="0052"/>
  <outline>
    <contour>
      <point x="160" y="0" type="line"/>
      <point x="400" y="0" type="line"/>
      <point x="400" y="699" type="line"/>
      <point x="335" y="649" type="line"/>
      <point x="413" y="643"/>
      <point x="618" y="622"/>
      <point x="829" y="649" type="curve"/>
      <point x="715" y="707" type="line"/>
      <point x="1030" y="0" type="line"/>
      <point x="1299" y="0" type="line"/>
      <point x="929" y="769" type="line"/>
      <point x="921" y="667" type="line"/>
      <point x="1093" y="717"/>
      <point x="1243" y="814"/>
      <point x="1243" y="1060" type="curve" smooth="yes"/>
      <point x="1243" y="1402"/>
      <point x="1063" y="1530"/>
      <point x="160" y="1457" type="curve"/>
    </contour>
    <contour>
      <point x="400" y="757" type="line"/>
      <point x="400" y="1341" type="line"/>
      <point x="341" y="1280" type="line"/>
      <point x="908" y="1320"/>
      <point x="991" y="1248"/>
      <point x="991" y="1056" type="curve" smooth="yes"/>
      <point x="991" y="831"/>
      <point x="817" y="780"/>
      <point x="333" y="821" type="curve"/>
    </contour>
  </outline>
</glyph>
<glyph name="Z" format="1">
  <advance width="1133"/>
  <unicode hex="005A"/>
  <outline>
    <contour>
      <point x="99" y="0" type="line"/>
      <point x="1081" y="0" type="line"/>
      <point x="1061" y="180" type="line"/>
      <point x="284" y="180" type="line"/>
      <point x="318" y="103" type="line"/>
      <point x="1048" y="1293" type="line"/>
      <point x="1045" y="1460" type="line"/>
      <point x="119" y="1460" type="line"/>
      <point x="127" y="1280" type="line"/>
      <point x="857" y="1280" type="line"/>
      <point x="816" y="1348" type="line"/>
      <point x="99" y="160" type="line"/>
    </contour>
  </outline>
</glyph>
<glyph name="f" format="1">
  <advance width="771.0"/>
  <unicode hex="0066"/>
  <outline>
    <contour>
      <point x="231.0" y="0" type="line"/>
      <point x="455.0" y="0" type="line"/>
      <point x="455.0" y="958" type="line"/>
      <point x="413.0" y="912" type="line"/>
      <point x="703.0" y="912" type="line"/>
      <point x="703.0" y="1058" type="line"/>
      <point x="406.0" y="1058" type="line"/>
      <point x="455.0" y="1012" type="line"/>
      <point x="455.0" y="1120" type="line" smooth="yes"/>
      <point x="455.0" y="1281"/>
      <point x="509.0" y="1303"/>
      <point x="601.0" y="1303" type="curve" smooth="yes"/>
      <point x="644.0" y="1303"/>
      <point x="700.0" y="1295"/>
      <point x="722.0" y="1291" type="curve"/>
      <point x="742.0" y="1451" type="line"/>
      <point x="693.0" y="1461"/>
      <point x="627.0" y="1469"/>
      <point x="561.0" y="1469" type="curve" smooth="yes"/>
      <point x="365.0" y="1469"/>
      <point x="231.0" y="1390"/>
      <point x="231.0" y="1103" type="curve" smooth="yes"/>
      <point x="231.0" y="1011" type="line"/>
      <point x="276.0" y="1061" type="line"/>
      <point x="67.0" y="1039" type="line"/>
      <point x="62.0" y="912" type="line"/>
      <point x="270.0" y="912" type="line"/>
      <point x="231.0" y="962" type="line"/>
    </contour>
  </outline>
</glyph>
<glyph name="g" format="1">
  <advance width="1193"/>
  <unicode hex="0067"/>
  <outline>
    <contour>
      <point x="573" y="187" type="curve" smooth="yes"/>
      <point x="372" y="187"/>
      <point x="310" y="347"/>
      <point x="310" y="540" type="curve" smooth="yes"/>
      <point x="310" y="739"/>
      <point x="380" y="906"/>
      <point x="577" y="906" type="curve" smooth="yes"/>
      <point x="768" y="906"/>
      <point x="843" y="774"/>
      <point x="843" y="566" type="curve" smooth="yes"/>
      <point x="843" y="512" type="line"/>
      <point x="842" y="322"/>
      <point x="770" y="187"/>
    </contour>
    <contour>
      <point x="344" y="-439"/>
      <point x="455" y="-455"/>
      <point x="551" y="-455" type="curve" smooth="yes"/>
      <point x="924" y="-455"/>
      <point x="1064" y="-216"/>
      <point x="1064" y="68" type="curve" smooth="yes"/>
      <point x="1064" y="1058" type="line"/>
      <point x="858" y="1058" type="line"/>
      <point x="841" y="830" type="line"/>
      <point x="876" y="837" type="line"/>
      <point x="829" y="994"/>
      <point x="708" y="1076"/>
      <point x="543" y="1076" type="curve" smooth="yes"/>
      <point x="268" y="1076"/>
      <point x="84" y="858"/>
      <point x="84" y="533" type="curve" smooth="yes"/>
      <point x="84" y="235"/>
      <point x="257" y="17"/>
      <point x="542" y="17" type="curve" smooth="yes"/>
      <point x="720" y="17"/>
      <point x="858" y="126"/>
      <point x="895" y="323" type="curve"/>
      <point x="850" y="323" type="line"/>
      <point x="850" y="292"/>
      <point x="864" y="161"/>
      <point x="864" y="42" type="curve" smooth="yes"/>
      <point x="864" y="-123"/>
      <point x="778" y="-279"/>
      <point x="523" y="-279" type="curve" smooth="yes"/>
      <point x="446" y="-279"/>
      <point x="353" y="-264"/>
      <point x="243" y="-232" type="curve"/>
      <point x="216" y="-404" type="line"/>
    </contour>
  </outline>
</glyph>
<glyph name="h" format="1">
  <advance width="1165.0"/>
  <unicode hex="0068"/>
  <outline>
    <contour>
      <point x="134.0" y="0" type="line"/>
      <point x="358.0" y="0" type="line"/>
      <point x="358.0" y="539" type="line" smooth="yes"/>
      <point x="358.0" y="705"/>
      <point x="427.0" y="906"/>
      <point x="626.0" y="906" type="curve" smooth="yes"/>
      <point x="763.0" y="906"/>
      <point x="819.0" y="820"/>
      <point x="819.0" y="640" type="curve" smooth="yes"/>
      <point x="819.0" y="0" type="line"/>
      <point x="1043.0" y="0" type="line"/>
      <point x="1043.0" y="657" type="line" smooth="yes"/>
      <point x="1043.0" y="938"/>
      <point x="904.0" y="1076"/>
      <point x="669.0" y="1076" type="curve" smooth="yes"/>
      <point x="499.0" y="1076"/>
      <point x="365.0" y="976"/>
      <point x="313.0" y="781" type="curve"/>
      <point x="349.0" y="781" type="line"/>
      <point x="358.0" y="1133" type="line"/>
      <point x="358.0" y="1480" type="line"/>
      <point x="134.0" y="1460" type="line"/>
    </contour>
  </outline>
</glyph>
<glyph name="m" format="1">
  <advance width="1711.0"/>
  <unicode hex="006D"/>
  <outline>
    <contour>
      <point x="132.0" y="0" type="line"/>
      <point x="353.0" y="0" type="line"/>
      <point x="353.0" y="559" type="line" smooth="yes"/>
      <point x="353.0" y="764"/>
      <point x="438.0" y="906"/>
      <point x="590.0" y="906" type="curve" smooth="yes"/>
      <point x="723.0" y="906"/>
      <point x="752.0" y="809"/>
      <point x="752.0" y="605" type="curve" smooth="yes"/>
      <point x="752.0" y="0" type="line"/>
      <point x="973.0" y="0" type="line"/>
      <point x="973.0" y="560" type="line" smooth="yes"/>
      <point x="973.0" y="764"/>
      <point x="1069.0" y="906"/>
      <point x="1208.0" y="906" type="curve" smooth="yes"/>
      <point x="1356.0" y="906"/>
      <point x="1368.0" y="779"/>
      <point x="1368.0" y="603" type="curve" smooth="yes"/>
      <point x="1368.0" y="0" type="line"/>
      <point x="1589.0" y="0" type="line"/>
      <point x="1589.0" y="676" type="line" smooth="yes"/>
      <point x="1589.0" y="936"/>
      <point x="1485.0" y="1076"/>
      <point x="1254.0" y="1076" type="curve" smooth="yes"/>
      <point x="1101.0" y="1076"/>
      <point x="970.0" y="997"/>
      <point x="903.0" y="797" type="curve"/>
      <point x="939.0" y="797" type="line"/>
      <point x="905.0" y="970"/>
      <point x="817.0" y="1076"/>
      <point x="644.0" y="1076" type="curve" smooth="yes"/>
      <point x="466.0" y="1076"/>
      <point x="353.0" y="965"/>
      <point x="307.0" y="786" type="curve"/>
      <point x="349.0" y="786" type="line"/>
      <point x="314.0" y="1058" type="line"/>
      <point x="132.0" y="1058" type="line"/>
    </contour>
  </outline>
</glyph>
<glyph name="o" format="1">
  <advance width="1176"/>
  <unicode hex="006F"/>
  <outline>
    <contour>
      <point x="588" y="152" type="curve"/>
      <point x="402" y="152"/>
      <point x="308" y="294"/>
      <point x="308" y="530" type="curve" smooth="yes"/>
      <point x="308" y="766"/>
      <point x="402" y="906"/>
      <point x="588" y="906" type="curve"/>
      <point x="774" y="906"/>
      <point x="868" y="766"/>
      <point x="868" y="530" type="curve" smooth="yes"/>
      <point x="868" y="294"/>
      <point x="774" y="152"/>
    </contour>
    <contour>
      <point x="588" y="1076" type="curve"/>
      <point x="277" y="1076"/>
      <point x="82" y="862"/>
      <point x="82" y="530" type="curve" smooth="yes"/>
      <point x="82" y="199"/>
      <point x="278" y="-18"/>
      <point x="588" y="-18" type="curve"/>
      <point x="898" y="-18"/>
      <point x="1094" y="199"/>
      <point x="1094" y="530" type="curve" smooth="yes"/>
      <point x="1094" y="862"/>
      <point x="899" y="1076"/>
    </contour>
  </outline>
</glyph>
<glyph name="p" format="1">
  <advance width="1180.0"/>
  <unicode hex="0070"/>
  <outline>
    <contour>
      <point x="130.0" y="-441" type="line"/>
      <point x="354.0" y="-441" type="line"/>
      <point x="354.0" y="-37" type="line"/>
      <point x="345.0" y="302" type="line"/>
      <point x="295.0" y="302" type="line"/>
      <point x="325.0" y="130"/>
      <point x="449.0" y="-18"/>
      <point x="646.0" y="-18" type="curve" smooth="yes"/>
      <point x="926.0" y="-18"/>
      <point x="1098.0" y="211"/>
      <point x="1098.0" y="530" type="curve" smooth="yes"/>
      <point x="1098.0" y="845"/>
      <point x="944.0" y="1076"/>
      <point x="671.0" y="1076" type="curve" smooth="yes"/>
      <point x="518.0" y="1076"/>
      <point x="367.0" y="1009"/>
      <point x="309.0" y="786" type="curve"/>
      <point x="349.0" y="786" type="line"/>
      <point x="315.0" y="1058" type="line"/>
      <point x="130.0" y="1058" type="line"/>
    </contour>
    <contour>
      <point x="613.0" y="152" type="curve" smooth="yes"/>
      <point x="441.0" y="152"/>
      <point x="351.0" y="279"/>
      <point x="351.0" y="548" type="curve"/>
      <point x="352.0" y="786"/>
      <point x="441.0" y="906"/>
      <point x="619.0" y="906" type="curve" smooth="yes"/>
      <point x="786.0" y="906"/>
      <point x="872.0" y="777"/>
      <point x="872.0" y="532" type="curve" smooth="yes"/>
      <point x="872.0" y="282"/>
      <point x="778.0" y="152"/>
    </contour>
  </outline>
</glyph>
<glyph name="q" format="1">
  <advance width="1198"/>
  <unicode hex="0071"/>
  <outline>
    <contour>
      <point x="841" y="-441" type="line"/>
      <point x="1065" y="-429" type="line"/>
      <point x="1065" y="1058" type="line"/>
      <point x="865" y="1058" type="line"/>
      <point x="841" y="786" type="line"/>
      <point x="885" y="786" type="line"/>
      <point x="830" y="967"/>
      <point x="730" y="1076"/>
      <point x="535" y="1076" type="curve" smooth="yes"/>
      <point x="265" y="1076"/>
      <point x="82" y="859"/>
      <point x="82" y="528" type="curve" smooth="yes"/>
      <point x="82" y="198"/>
      <point x="263" y="-18"/>
      <point x="536" y="-18" type="curve" smooth="yes"/>
      <point x="756" y="-18"/>
      <point x="856" y="119"/>
      <point x="892" y="297" type="curve"/>
      <point x="848" y="297" type="line"/>
      <point x="841" y="-20" type="line"/>
    </contour>
    <contour>
      <point x="575" y="152" type="curve" smooth="yes"/>
      <point x="410" y="152"/>
      <point x="308" y="286"/>
      <point x="308" y="531" type="curve" smooth="yes"/>
      <point x="308" y="776"/>
      <point x="416" y="906"/>
      <point x="573" y="906" type="curve" smooth="yes"/>
      <point x="759" y="906"/>
      <point x="846" y="784"/>
      <point x="846" y="531" type="curve"/>
      <point x="845" y="273"/>
      <point x="754" y="152"/>
    </contour>
  </outline>
</glyph>
<glyph name="s" format="1">
  <advance width="868.026559983"/>
  <unicode hex="0073"/>
  <outline>
    <contour>
      <point x="445.004415537" y="-18" type="curve" smooth="yes"/>
      <point x="641.004415537" y="-18"/>
      <point x="806.004415537" y="80"/>
      <point x="804.004415537" y="297" type="curve" smooth="yes"/>
      <point x="803.004415537" y="413"/>
      <point x="793.004415537" y="501"/>
      <point x="454.004415537" y="649" type="curve" smooth="yes"/>
      <point x="330.004415537" y="703"/>
      <point x="300.004415537" y="736"/>
      <point x="303.004415537" y="800" type="curve" smooth="yes"/>
      <point x="307.004415537" y="884"/>
      <point x="368.004415537" y="906"/>
      <point x="463.004415537" y="906" type="curve" smooth="yes"/>
      <point x="542.004415537" y="906"/>
      <point x="632.004415537" y="878"/>
      <point x="718.004415537" y="818" type="curve"/>
      <point x="777.004415537" y="989" type="line"/>
      <point x="681.004415537" y="1046"/>
      <point x="563.004415537" y="1076"/>
      <point x="455.004415537" y="1076" type="curve" smooth="yes"/>
      <point x="264.004415537" y="1076"/>
      <point x="95.0044155375" y="998"/>
      <point x="96.0044155375" y="791" type="curve" smooth="yes"/>
      <point x="97.0044155375" y="610"/>
      <point x="143.004415537" y="575"/>
      <point x="449.004415537" y="439" type="curve" smooth="yes"/>
      <point x="594.004415537" y="375"/>
      <point x="598.004415537" y="335"/>
      <point x="598.004415537" y="288" type="curve" smooth="yes"/>
      <point x="598.004415537" y="203"/>
      <point x="552.004415537" y="152"/>
      <point x="440.004415537" y="152" type="curve" smooth="yes"/>
      <point x="366.004415537" y="152"/>
      <point x="268.004415537" y="179"/>
      <point x="158.004415537" y="232" type="curve"/>
      <point x="110.004415537" y="62" type="line"/>
      <point x="210.004415537" y="11"/>
      <point x="339.004415537" y="-18"/>
    </contour>
  </outline>
</glyph>
<glyph name="t" format="1">
  <advance width="771"/>
  <unicode hex="0074"/>
  <outline>
    <contour>
      <point x="708" y="-6" type="line"/>
      <point x="717" y="157" type="line"/>
      <point x="671" y="161" type="line" smooth="yes"/>
      <point x="467" y="179"/>
      <point x="429" y="172"/>
      <point x="429" y="361" type="curve" smooth="yes"/>
      <point x="429" y="960" type="line"/>
      <point x="390" y="912" type="line"/>
      <point x="695" y="912" type="line"/>
      <point x="695" y="1058" type="line"/>
      <point x="390" y="1058" type="line"/>
      <point x="429" y="1008" type="line"/>
      <point x="429" y="1367" type="line"/>
      <point x="238" y="1352" type="line"/>
      <point x="214" y="1016" type="line"/>
      <point x="270" y="1061" type="line"/>
      <point x="45" y="1047" type="line"/>
      <point x="38" y="912" type="line"/>
      <point x="244" y="912" type="line"/>
      <point x="205" y="961" type="line"/>
      <point x="205" y="367" type="line" smooth="yes"/>
      <point x="205" y="101"/>
      <point x="275" y="-6"/>
      <point x="572" y="-6" type="curve" smooth="yes"/>
    </contour>
  </outline>
</glyph>
<glyph name="v" format="1">
  <advance width="1118.0"/>
  <unicode hex="0076"/>
  <outline>
    <contour>
      <point x="458.0" y="0" type="line"/>
      <point x="672.0" y="0" type="line"/>
      <point x="1079.0" y="1058" type="line"/>
      <point x="853.0" y="1058" type="line"/>
      <point x="643.0" y="475" type="line"/>
      <point x="548.0" y="167" type="line"/>
      <point x="592.0" y="167" type="line"/>
      <point x="488.0" y="475" type="line"/>
      <point x="273.0" y="1058" type="line"/>
      <point x="39.0" y="1058" type="line"/>
    </contour>
  </outline>
</glyph>
<glyph name="w" format="1">
  <advance width="1559.6"/>
  <unicode hex="0077"/>
  <outline>
    <contour>
      <point x="334.8" y="0" type="line"/>
      <point x="536.8" y="0" type="line"/>
      <point x="801.8" y="899" type="line"/>
      <point x="758.8" y="899" type="line"/>
      <point x="1016.8" y="0" type="line"/>
      <point x="1216.8" y="0" type="line"/>
      <point x="1510.8" y="1058" type="line"/>
      <point x="1319.8" y="1058" type="line"/>
      <point x="1106.8" y="191" type="line"/>
      <point x="1142.8" y="191" type="line"/>
      <point x="894.8" y="1058" type="line"/>
      <point x="673.8" y="1058" type="line"/>
      <point x="425.8" y="191" type="line"/>
      <point x="460.8" y="191" type="line"/>
      <point x="253.8" y="1058" type="line"/>
      <point x="48.8" y="1058" type="line"/>
    </contour>
  </outline>
</glyph>
<glyph name="y" format="1">
  <advance width="1066.0"/>
  <unicode hex="0079"/>
  <outline>
    <contour>
      <point x="484.0" y="-444" type="line"/>
      <point x="1039.0" y="1058" type="line"/>
      <point x="808.0" y="1058" type="line"/>
      <point x="532.0" y="239" type="line"/>
      <point x="578.0" y="239" type="line"/>
      <point x="261.0" y="1058" type="line"/>
      <point x="36.0" y="1058" type="line"/>
      <point x="482.0" y="-30" type="line"/>
      <point x="482.0" y="111" type="line"/>
      <point x="282.0" y="-412" type="line"/>
    </contour>
  </outline>
</glyph>
<glyph name="asciitilde" format="1">
  <advance width="1181"/>
  <unicode hex="007E"/>
  <outline>
    <contour>
      <point x="183" y="480" type="curve"/>
      <point x="114" y="606" type="line"/>
      <point x="162" y="712"/>
      <point x="248" y="799"/>
      <point x="388" y="799" type="curve" smooth="yes"/>
      <point x="470" y="799"/>
      <point x="544" y="774"/>
      <point x="634" y="734" type="curve" smooth="yes"/>
      <point x="724" y="695"/>
      <point x="796" y="665"/>
      <point x="852" y="665" type="curve" smooth="yes"/>
      <point x="929" y="665"/>
      <point x="1000" y="718"/>
      <point x="1062" y="805" type="curve"/>
      <point x="1131" y="686" type="line"/>
      <point x="1081" y="578"/>
      <point x="977" y="492"/>
      <point x="842" y="492" type="curve" smooth="yes"/>
      <point x="759" y="492"/>
      <point x="687" y="520"/>
      <point x="600" y="559" type="curve"/>
      <point x="515" y="598"/>
      <point x="451" y="627"/>
      <point x="381" y="627" type="curve" smooth="yes"/>
      <point x="295" y="627"/>
      <point x="225" y="558"/>
    </contour>
  </outline>
</glyph>
<glyph name="sterling" format="1">
  <advance width="1085"/>
  <unicode hex="00A3"/>
  <outline>
    <contour>
      <point x="98" y="10" type="line"/>
      <point x="87" y="179" type="line"/>
      <point x="262" y="199" type="line"/>
      <point x="262" y="660" type="line"/>
      <point x="82" y="660" type="line"/>
      <point x="82" y="822" type="line"/>
      <point x="262" y="822" type="line"/>
      <point x="262" y="925" type="line" smooth="yes"/>
      <point x="262" y="1228"/>
      <point x="354" y="1476"/>
      <point x="688" y="1476" type="curve" smooth="yes"/>
      <point x="836" y="1476"/>
      <point x="958" y="1423"/>
      <point x="1051" y="1344" type="curve"/>
      <point x="957" y="1197" type="line"/>
      <point x="872" y="1259"/>
      <point x="792" y="1294"/>
      <point x="695" y="1294" type="curve" smooth="yes"/>
      <point x="530" y="1294"/>
      <point x="472" y="1180"/>
      <point x="472" y="996" type="curve" smooth="yes"/>
      <point x="472" y="822" type="line"/>
      <point x="859" y="822" type="line"/>
      <point x="859" y="660" type="line"/>
      <point x="472" y="660" type="line"/>
      <point x="472" y="201" type="line"/>
      <point x="1067" y="201" type="line"/>
      <point x="1058" y="10" type="line"/>
    </contour>
  </outline>
</glyph>
<glyph name="brokenbar" format="1">
  <advance width="564"/>
  <unicode hex="00A6"/>
  <outline>
    <contour>
      <point x="211" y="-303" type="line"/>
      <point x="211" y="404" type="line"/>
      <point x="388" y="404" type="line"/>
      <point x="388" y="-303" type="line"/>
    </contour>
    <contour>
      <point x="211" y="765" type="line"/>
      <point x="211" y="1470" type="line"/>
      <point x="388" y="1470" type="line"/>
      <point x="388" y="765" type="line"/>
    </contour>
  </outline>
</glyph>
<glyph name="uni00AD" format="1">
  <advance width="797"/>
  <unicode hex="00AD"/>
  <outline>
    <contour>
      <point x="87" y="303" type="line"/>
      <point x="746" y="303" type="line"/>
      <point x="746" y="485" type="line"/>
      <point x="87" y="485" type="line"/>
    </contour>
  </outline>
</glyph>
<glyph name="uni00B3" format="1">
  <advance width="759"/>
  <unicode hex="00B3"/>
  <outline>
    <contour>
      <point x="393" y="594" type="curve" smooth="yes"/>
      <point x="547" y="594"/>
      <point x="678" y="688"/>
      <point x="678" y="858" type="curve" smooth="yes"/>
      <point x="678" y="952"/>
      <point x="619" y="1028"/>
      <point x="536" y="1062" type="curve"/>
      <point x="622" y="1092"/>
      <point x="658" y="1157"/>
      <point x="659" y="1230" type="curve"/>
      <point x="659" y="1394"/>
      <point x="533" y="1468"/>
      <point x="397" y="1468" type="curve" smooth="yes"/>
      <point x="303" y="1468"/>
      <point x="204" y="1435"/>
      <point x="141" y="1377" type="curve"/>
      <point x="196" y="1270" type="line"/>
      <point x="236" y="1303"/>
      <point x="321" y="1333"/>
      <point x="389" y="1333" type="curve" smooth="yes"/>
      <point x="459" y="1333"/>
      <point x="499" y="1293"/>
      <point x="499" y="1229" type="curve" smooth="yes"/>
      <point x="499" y="1161"/>
      <point x="446" y="1122"/>
      <point x="342" y="1122" type="curve" smooth="yes"/>
      <point x="262" y="1122" type="line"/>
      <point x="262" y="986" type="line"/>
      <point x="342" y="987" type="line" smooth="yes"/>
      <point x="452" y="987"/>
      <point x="524" y="944"/>
      <point x="524" y="860" type="curve" smooth="yes"/>
      <point x="524" y="770"/>
      <point x="468" y="729"/>
      <point x="388" y="729" type="curve" smooth="yes"/>
      <point x="327" y="729"/>
      <point x="236" y="756"/>
      <point x="191" y="798" type="curve"/>
      <point x="137" y="677" type="line"/>
      <point x="205" y="620"/>
      <point x="308" y="594"/>
    </contour>
  </outline>
</glyph>
<glyph name="ordmasculine" format="1">
  <advance width="844"/>
  <unicode hex="00BA"/>
  <outline>
    <contour>
      <point x="242" y="1105" type="curve" smooth="yes"/>
      <point x="242" y="942.625"/>
      <point x="302.604" y="859"/>
      <point x="421" y="859" type="curve" smooth="yes"/>
      <point x="547.069" y="859"/>
      <point x="607" y="942.136"/>
      <point x="607" y="1102" type="curve" smooth="yes"/>
      <point x="607" y="1267.21"/>
      <point x="542.33" y="1356"/>
      <point x="421" y="1356" type="curve" smooth="yes"/>
      <point x="303.964" y="1356"/>
      <point x="242" y="1269.6"/>
    </contour>
    <contour>
      <point x="777" y="1105" type="curve" smooth="yes"/>
      <point x="777" y="887.611"/>
      <point x="639.647" y="715"/>
      <point x="421" y="715" type="curve" smooth="yes"/>
      <point x="190.38" y="715"/>
      <point x="65" y="885.213"/>
      <point x="65" y="1105" type="curve" smooth="yes"/>
      <point x="65" y="1328.58"/>
      <point x="190.218" y="1500"/>
      <point x="421" y="1500" type="curve" smooth="yes"/>
      <point x="657.698" y="1500"/>
      <point x="777" y="1331.3"/>
    </contour>
  </outline>
</glyph>
<glyph name="thorn" format="1">
  <advance width="1163"/>
  <unicode hex="00FE"/>
  <outline>
    <contour>
      <point x="122" y="1460" type="line"/>
      <point x="122" y="763" type="line"/>
      <point x="347" y="763" type="line"/>
      <point x="347" y="1480" type="line"/>
    </contour>
    <component base="p"/>
  </outline>
</glyph>
<glyph name="Dcroat" format="1">
  <advance width="1509"/>
  <unicode hex="0110"/>
  <outline>
    <contour>
      <point x="62" y="703" type="line"/>
      <point x="62" y="794" type="line"/>
      <point x="586" y="794" type="line"/>
      <point x="586" y="703" type="line"/>
    </contour>
    <component base="D"/>
  </outline>
</glyph>
<glyph name="uni031B" format="1">
  <advance width="511"/>
  <unicode hex="031B"/>
  <outline>
    <contour>
      <point x="213" y="512" type="line"/>
      <point x="227" y="477"/>
      <point x="237" y="436"/>
      <point x="237" y="398" type="curve" smooth="yes"/>
      <point x="237" y="334"/>
      <point x="210" y="270"/>
      <point x="116" y="270" type="curve" smooth="yes"/>
      <point x="102" y="270" type="line"/>
      <point x="102" y="173" type="line"/>
      <point x="122" y="171"/>
      <point x="141" y="169"/>
      <point x="160" y="169" type="curve" smooth="yes"/>
      <point x="312" y="169"/>
      <point x="364" y="252"/>
      <point x="364" y="349" type="curve" smooth="yes"/>
      <point x="364" y="400"/>
      <point x="348" y="459"/>
      <point x="324" y="512" type="curve"/>
    </contour>
  </outline>
</glyph>
<glyph name="Phi" format="1">
  <advance width="1570"/>
  <unicode hex="03A6"/>
  <outline>
    <contour>
      <point x="722" y="0" type="line"/>
      <point x="722" y="167" type="line"/>
      <point x="318" y="200"/>
      <point x="104" y="442"/>
      <point x="104" y="759" type="curve" smooth="yes"/>
      <point x="104" y="1080"/>
      <point x="329" y="1304"/>
      <point x="722" y="1335" type="curve"/>
      <point x="722" y="1470" type="line"/>
      <point x="903" y="1470" type="line"/>
      <point x="903" y="1335" type="line"/>
      <point x="1298" y="1306"/>
      <point x="1526" y="1082"/>
      <point x="1526" y="759" type="curve" smooth="yes"/>
      <point x="1526" y="442"/>
      <point x="1312" y="198"/>
      <point x="903" y="167" type="curve"/>
      <point x="903" y="0" type="line"/>
    </contour>
    <contour>
      <point x="722" y="329" type="curve"/>
      <point x="722" y="1173" type="line"/>
      <point x="439" y="1145"/>
      <point x="297" y="988"/>
      <point x="297" y="759" type="curve" smooth="yes"/>
      <point x="297" y="539"/>
      <point x="426" y="360"/>
    </contour>
    <contour>
      <point x="903" y="329" type="line"/>
      <point x="1200" y="358"/>
      <point x="1332" y="537"/>
      <point x="1332" y="759" type="curve" smooth="yes"/>
      <point x="1332" y="986"/>
      <point x="1191" y="1146"/>
      <point x="903" y="1173" type="curve"/>
    </contour>
  </outline>
</glyph>
<glyph name="uni040A" format="1">
  <advance width="2129"/>
  <unicode hex="040A"/>
  <outline>
    <contour>
      <point x="1075" y="0" type="line"/>
      <point x="1596" y="0" type="line" smooth="yes"/>
      <point x="1925" y="0"/>
      <point x="2118" y="139"/>
      <point x="2118" y="420" type="curve" smooth="yes"/>
      <point x="2118" y="702"/>
      <point x="1943" y="836"/>
      <point x="1599" y="836" type="curve" smooth="yes"/>
      <point x="1251" y="836" type="line"/>
      <point x="1327" y="759" type="line"/>
      <point x="1328" y="1445" type="line"/>
      <point x="1075" y="1445" type="line"/>
      <point x="1075" y="768" type="line"/>
      <point x="1148" y="836" type="line"/>
      <point x="362" y="836" type="line"/>
      <point x="439" y="768" type="line"/>
      <point x="439" y="1445" type="line"/>
      <point x="186" y="1445" type="line"/>
      <point x="186" y="0" type="line"/>
      <point x="439" y="0" type="line"/>
      <point x="439" y="719" type="line"/>
      <point x="362" y="650" type="line"/>
      <point x="1153" y="650" type="line"/>
      <point x="1075" y="719" type="line"/>
    </contour>
    <contour>
      <point x="1328" y="87" type="line"/>
      <point x="1328" y="727" type="line"/>
      <point x="1252" y="650" type="line"/>
      <point x="1586" y="650" type="line" smooth="yes"/>
      <point x="1784" y="650"/>
      <point x="1868" y="592"/>
      <point x="1868" y="421" type="curve" smooth="yes"/>
      <point x="1868" y="249"/>
      <point x="1764" y="188"/>
      <point x="1571" y="188" type="curve" smooth="yes"/>
      <point x="1243" y="188" type="line"/>
    </contour>
  </outline>
</glyph>
<glyph name="uni041F" format="1">
  <advance width="1504"/>
  <unicode hex="041F"/>
  <outline>
    <contour>
      <point x="186" y="0" type="line"/>
      <point x="439" y="0" type="line"/>
      <point x="439" y="1326" type="line"/>
      <point x="363" y="1257" type="line"/>
      <point x="1197" y="1257" type="line"/>
      <point x="1118" y="1326" type="line"/>
      <point x="1118" y="0" type="line"/>
      <point x="1371" y="0" type="line"/>
      <point x="1371" y="1445" type="line"/>
      <point x="186" y="1445" type="line"/>
    </contour>
  </outline>
</glyph>
<glyph name="uni0424" format="1">
  <advance width="1645"/>
  <unicode hex="0424"/>
  <outline>
    <contour>
      <point x="747" y="0" type="line"/>
      <point x="957" y="0" type="line"/>
      <point x="957" y="140" type="line"/>
      <point x="1360" y="161"/>
      <point x="1628" y="382"/>
      <point x="1628" y="736" type="curve" smooth="yes"/>
      <point x="1628" y="1087"/>
      <point x="1358" y="1306"/>
      <point x="957" y="1325" type="curve"/>
      <point x="957" y="1452" type="line"/>
      <point x="747" y="1452" type="line"/>
      <point x="746" y="1324" type="line"/>
      <point x="339" y="1299"/>
      <point x="83" y="1073"/>
      <point x="83" y="736" type="curve" smooth="yes"/>
      <point x="83" y="394"/>
      <point x="341" y="165"/>
      <point x="746" y="140" type="curve"/>
    </contour>
    <contour>
      <point x="746" y="332" type="line"/>
      <point x="451" y="356"/>
      <point x="310" y="518"/>
      <point x="310" y="735" type="curve" smooth="yes"/>
      <point x="310" y="948"/>
      <point x="452" y="1109"/>
      <point x="746" y="1133" type="curve"/>
    </contour>
    <contour>
      <point x="957" y="331" type="curve"/>
      <point x="957" y="1133" type="line"/>
      <point x="1262" y="1111"/>
      <point x="1402" y="949"/>
      <point x="1402" y="735" type="curve" smooth="yes"/>
      <point x="1402" y="517"/>
      <point x="1260" y="353"/>
    </contour>
  </outline>
</glyph>
<glyph name="uni0446" format="1">
  <advance width="1221"/>
  <unicode hex="0446"/>
  <outline>
    <contour>
      <point x="972" y="-280" type="line"/>
      <point x="987" y="0" type="line"/>
      <point x="212" y="0" type="line"/>
      <point x="212" y="1078" type="line"/>
      <point x="342" y="1078" type="line"/>
      <point x="342" y="79" type="line"/>
      <point x="908" y="79" type="line"/>
      <point x="908" y="1078" type="line"/>
      <point x="1039" y="1078" type="line"/>
      <point x="1039" y="138" type="line"/>
      <point x="1136" y="138" type="line"/>
      <point x="1136" y="-280" type="line"/>
    </contour>
  </outline>
</glyph>
<glyph name="quoteleft" format="1">
  <advance width="426"/>
  <unicode hex="2018"/>
  <outline>
    <contour>
      <point x="210" y="960" type="line"/>
      <point x="364" y="960" type="line"/>
      <point x="291" y="1460" type="line"/>
      <point x="85" y="1460" type="line"/>
    </contour>
  </outline>
</glyph>
<glyph name="onesuperior" format="1">
  <advance width="780.0"/>
  <outline>
    <contour>
      <point x="239.0" y="598.0" type="line"/>
      <point x="670.0" y="598.0" type="line"/>
      <point x="670.0" y="707.0" type="line"/>
      <point x="531.0" y="707.0" type="line"/>
      <point x="531.0" y="1460.0" type="line"/>
      <point x="421.0" y="1460.0" type="line"/>
      <point x="379.0" y="1421.0"/>
      <point x="265.0" y="1372.0"/>
      <point x="229.0" y="1359.0" type="curve"/>
      <point x="229.0" y="1248.0" type="line"/>
      <point x="263.0" y="1260.0"/>
      <point x="356.0" y="1297.0"/>
      <point x="393.0" y="1320.0" type="curve"/>
      <point x="393.0" y="707.0" type="line"/>
      <point x="239.0" y="707.0" type="line"/>
    </contour>
  </outline>
</glyph>
